<svg width="29" height="28" viewBox="0 0 29 28" fill="none" xmlns="http://www.w3.org/2000/svg">
<g clip-path="url(#clip0_211_2512)">
<path fill-rule="evenodd" clip-rule="evenodd" d="M7.34863 0.0548096C11.1929 0.0548096 14.3093 3.17122 14.3093 7.0155V0.0548096H21.27C25.1143 0.0548096 28.2307 3.17122 28.2307 7.0155C28.2307 10.8598 25.1143 13.9762 21.27 13.9762C25.1143 13.9762 28.2307 17.0926 28.2307 20.9369C28.2307 22.8457 27.4623 24.5751 26.218 25.8326L26.192 25.8589L26.1689 25.8818C24.9111 27.1279 23.1805 27.8976 21.27 27.8976C19.3726 27.8976 17.6525 27.1384 16.3968 25.9072C16.3806 25.8912 16.3643 25.875 16.348 25.8589C16.3328 25.8436 16.3176 25.8283 16.3025 25.8129C15.0697 24.5571 14.3093 22.8358 14.3093 20.9369C14.3093 24.7811 11.1929 27.8976 7.34863 27.8976C3.50435 27.8976 0.387939 24.7811 0.387939 20.9369V13.9762H7.34863C3.50435 13.9762 0.387939 10.8598 0.387939 7.0155C0.387939 3.17122 3.50435 0.0548096 7.34863 0.0548096ZM12.9172 7.0155C12.9172 10.0909 10.4241 12.5841 7.34863 12.5841V1.44695C10.4241 1.44695 12.9172 3.94007 12.9172 7.0155ZM26.8386 20.9369C26.8386 17.8615 24.3455 15.3683 21.27 15.3683C18.1946 15.3683 15.7015 17.8615 15.7015 20.9369H26.8386ZM1.78008 15.3683V20.9369C1.78008 24.0123 4.2732 26.5054 7.34863 26.5054C10.4241 26.5054 12.9172 24.0123 12.9172 20.9369V15.3683H1.78008ZM15.7015 12.5841V1.44695H21.27C24.3455 1.44695 26.8386 3.94007 26.8386 7.0155C26.8386 10.0909 24.3455 12.5841 21.27 12.5841H15.7015Z" fill="#5417D7"/>
</g>
<defs>
<clipPath id="clip0_211_2512">
<rect width="27.8428" height="27.8428" fill="white" transform="translate(0.387939 0.0548096)"/>
</clipPath>
</defs>
</svg>
